<svg width="512" height="512" viewBox="0 0 512 512" fill="none" xmlns="http://www.w3.org/2000/svg">
<path d="M366.328 104.84C366.328 131.805 360.013 157.405 347.384 181.64C335.096 205.533 318.541 224.989 297.72 240.008C277.24 255.027 255.224 262.877 231.672 263.56C227.235 329.437 217.165 384.392 201.464 428.424C185.763 472.797 162.723 494.984 132.344 494.984C113.912 494.984 100.259 488.328 91.384 475.016C82.5093 461.704 78.072 443.272 78.072 419.72C78.072 386.269 85.752 347.187 101.112 302.472C116.472 258.099 140.195 209.117 172.28 155.528C172.28 105.693 171.939 71.048 171.256 51.592C170.915 41.6933 174.84 33.8427 183.032 28.04C191.224 22.2373 201.464 19.336 213.752 19.336C220.92 19.336 226.04 20.872 229.112 23.944C232.525 26.6747 234.403 32.3067 234.744 40.84C234.744 49.3733 234.915 55.688 235.256 59.784C246.179 46.1307 256.931 36.4027 267.512 30.6C278.093 24.456 289.357 21.384 301.304 21.384C320.419 21.384 335.949 29.064 347.896 44.424C360.184 59.784 366.328 79.9227 366.328 104.84ZM234.232 214.408C246.52 211.677 257.784 205.021 268.024 194.44C278.605 183.517 286.968 170.205 293.112 154.504C299.256 138.461 302.328 121.736 302.328 104.328C302.328 94.088 300.28 86.408 296.184 81.288C292.088 75.8267 286.627 73.096 279.8 73.096C267.512 73.096 252.664 86.0667 235.256 112.008C234.915 127.027 234.744 149.043 234.744 178.056C234.744 193.757 234.573 205.875 234.232 214.408ZM136.44 444.808C145.656 444.808 153.336 424.669 159.48 384.392C165.624 344.456 169.549 294.621 171.256 234.888C156.579 269.021 144.973 301.619 136.44 332.68C127.907 363.741 123.64 389.853 123.64 411.016C123.64 421.939 125.005 430.301 127.736 436.104C130.125 441.907 133.027 444.808 136.44 444.808Z" fill="#8862F1"/>
</svg>
