<svg width="181" height="16" viewBox="0 0 181 16" fill="none" xmlns="http://www.w3.org/2000/svg">
<path fill-rule="evenodd" clip-rule="evenodd" d="M179.972 0.152267C178.468 0.404722 176.415 0.693026 172.856 1.1513C165.02 2.16058 160.074 3.05102 145.488 6.07833C135.568 8.13728 132.456 8.72508 128.958 9.20024C127.419 9.40929 125.314 9.47694 124.539 9.34218L124.116 9.26861L124.194 9.05315C124.365 8.57877 125.051 7.98118 127.014 6.59421C130.142 4.38422 130.936 3.53067 130.788 2.53496C130.424 0.0894836 123.087 0.549172 108.972 3.90178C107.944 4.14596 104.84 4.93444 102.075 5.654C91.2591 8.46835 89.1488 8.96011 87.8513 8.96839L87.1945 8.97258L87.2198 8.76152C87.2597 8.42904 87.7043 7.91103 89.1569 6.50449C92.1104 3.64459 92.5095 2.46917 90.8103 1.63419C89.2113 0.848394 84.1477 1.16254 77.8894 2.43573C73.1868 3.39241 63.4593 5.85804 50.3024 9.42812C38.0843 12.7435 36.1941 13.213 35.7537 13.0418C35.6044 12.9838 36.2659 12.4463 39.1939 10.2465C44.8522 5.99535 45.7932 5.07279 45.8067 3.76334C45.8316 1.36063 41.8245 1.66459 29.8696 4.97225C22.0089 7.14712 14.9939 9.5824 5.81559 13.3228C0.970907 15.2971 0 15.7268 0 15.8965C0 16.0257 0.286379 16.0374 0.381948 15.9121C0.458031 15.8126 2.12978 15.1554 4.37888 14.341C5.19171 14.0466 6.74348 13.4631 7.82725 13.0442C13.0854 11.0122 22.3443 7.83086 26.6564 6.57446C34.676 4.2379 40.3086 2.92904 42.7488 2.83496C44.1441 2.78118 44.3869 2.93664 44.3051 3.83158C44.2008 4.97302 42.9816 6.14676 37.8311 10.0645C33.8666 13.0801 33.6303 13.3662 34.8963 13.6159C36.4983 13.9318 38.6215 13.4707 51.5613 9.99677C75.1763 3.65688 84.1197 1.73224 88.6628 2.01249C90.8236 2.14579 90.484 3.52908 87.5925 6.37201C85.3459 8.58081 85.1075 9.18076 86.3403 9.52284C88.0542 9.99841 90.3076 9.57202 103.561 6.26473C115.118 3.38045 121.584 2.12213 125.773 1.94161C128.218 1.83624 128.713 2.00712 128.6 2.9168C128.509 3.64132 127.819 4.29577 125.187 6.15185C121.256 8.92431 121.013 9.90096 124.167 10.2499C127.541 10.6231 130.999 10.1033 146.583 6.87983C154.904 5.15873 157.78 4.59249 164.018 3.44655C166.231 3.03996 169.335 2.43232 170.915 2.09629C172.494 1.76021 175.142 1.20958 176.797 0.872643C178.453 0.535703 180.103 0.199855 180.465 0.126334C181.34 -0.0517809 181.118 -0.0401337 179.972 0.152267Z" fill="#7000FF"/>
</svg>
