<svg id="wave" style="transform:rotate(180deg); transition: 0.3s" viewBox="0 0 1440 200" version="1.1" xmlns="http://www.w3.org/2000/svg"><defs><linearGradient id="sw-gradient-0" x1="0" x2="0" y1="1" y2="0"><stop stop-color="rgba(11, 12, 13, 1)" offset="0%"></stop><stop stop-color="rgba(11, 12, 13, 1)" offset="100%"></stop></linearGradient></defs><path style="transform:translate(0, 0px); opacity:1" fill="url(#sw-gradient-0)" d="M0,120L48,135C96,150,192,180,288,165C384,150,480,90,576,85C672,80,768,130,864,130C960,130,1056,80,1152,55C1248,30,1344,30,1440,25C1536,20,1632,10,1728,20C1824,30,1920,60,2016,100C2112,140,2208,190,2304,175C2400,160,2496,80,2592,80C2688,80,2784,160,2880,165C2976,170,3072,100,3168,60C3264,20,3360,10,3456,45C3552,80,3648,160,3744,175C3840,190,3936,140,4032,140C4128,140,4224,190,4320,220C4416,250,4512,260,4608,220C4704,180,4800,90,4896,70C4992,50,5088,100,5184,110C5280,120,5376,90,5472,70C5568,50,5664,40,5760,35C5856,30,5952,30,6048,35C6144,40,6240,50,6336,55C6432,60,6528,60,6624,50C6720,40,6816,20,6864,10L6912,0L6912,300L6864,300C6816,300,6720,300,6624,300C6528,300,6432,300,6336,300C6240,300,6144,300,6048,300C5952,300,5856,300,5760,300C5664,300,5568,300,5472,300C5376,300,5280,300,5184,300C5088,300,4992,300,4896,300C4800,300,4704,300,4608,300C4512,300,4416,300,4320,300C4224,300,4128,300,4032,300C3936,300,3840,300,3744,300C3648,300,3552,300,3456,300C3360,300,3264,300,3168,300C3072,300,2976,300,2880,300C2784,300,2688,300,2592,300C2496,300,2400,300,2304,300C2208,300,2112,300,2016,300C1920,300,1824,300,1728,300C1632,300,1536,300,1440,300C1344,300,1248,300,1152,300C1056,300,960,300,864,300C768,300,672,300,576,300C480,300,384,300,288,300C192,300,96,300,48,300L0,300Z"></path></svg>