<svg id="wave" style="transform:rotate(0deg); transition: 0.3s" viewBox="0 0 1440 210" version="1.1" xmlns="http://www.w3.org/2000/svg"><defs><linearGradient id="sw-gradient-0" x1="0" x2="0" y1="1" y2="0"><stop stop-color="rgba(11, 12, 13, 1)" offset="0%"></stop><stop stop-color="rgba(11, 12, 13, 1)" offset="100%"></stop></linearGradient></defs><path style="transform:translate(0, 0px); opacity:1" fill="url(#sw-gradient-0)" d="M0,150L48,135C96,120,192,90,288,110C384,130,480,200,576,200C672,200,768,130,864,105C960,80,1056,100,1152,135C1248,170,1344,220,1440,200C1536,180,1632,90,1728,80C1824,70,1920,140,2016,160C2112,180,2208,150,2304,140C2400,130,2496,140,2592,130C2688,120,2784,90,2880,95C2976,100,3072,140,3168,160C3264,180,3360,180,3456,195C3552,210,3648,240,3744,250C3840,260,3936,250,4032,250C4128,250,4224,260,4320,265C4416,270,4512,270,4608,240C4704,210,4800,150,4896,115C4992,80,5088,70,5184,100C5280,130,5376,200,5472,220C5568,240,5664,210,5760,175C5856,140,5952,100,6048,90C6144,80,6240,100,6336,130C6432,160,6528,200,6624,225C6720,250,6816,260,6864,265L6912,270L6912,300L6864,300C6816,300,6720,300,6624,300C6528,300,6432,300,6336,300C6240,300,6144,300,6048,300C5952,300,5856,300,5760,300C5664,300,5568,300,5472,300C5376,300,5280,300,5184,300C5088,300,4992,300,4896,300C4800,300,4704,300,4608,300C4512,300,4416,300,4320,300C4224,300,4128,300,4032,300C3936,300,3840,300,3744,300C3648,300,3552,300,3456,300C3360,300,3264,300,3168,300C3072,300,2976,300,2880,300C2784,300,2688,300,2592,300C2496,300,2400,300,2304,300C2208,300,2112,300,2016,300C1920,300,1824,300,1728,300C1632,300,1536,300,1440,300C1344,300,1248,300,1152,300C1056,300,960,300,864,300C768,300,672,300,576,300C480,300,384,300,288,300C192,300,96,300,48,300L0,300Z"></path></svg>        