<?xml version="1.0" encoding="UTF-8"?>
<svg xmlns="http://www.w3.org/2000/svg" xmlns:xlink="http://www.w3.org/1999/xlink" width="378.1pt" height="394.3pt" viewBox="0 0 378.1 394.3" version="1.1">
<g id="surface1">
<path style=" stroke:none;fill-rule:evenodd;fill:rgb(100%,100%,100%);fill-opacity:1;" d="M 242.378906 1.503906 C 251.179688 0.824219 260.097656 -0.015625 268.878906 1.425781 C 276.460938 2.644531 283.257813 6.5625 289.449219 10.933594 C 314.664063 28.773438 340.050781 46.394531 365.230469 64.304688 C 370.738281 68.292969 377.589844 72.972656 377.210938 80.683594 C 377.269531 167.003906 377.21875 253.335938 377.238281 339.652344 C 377.050781 348.015625 378.128906 356.785156 374.746094 364.683594 C 372.710938 369.644531 368.410156 373.414063 363.46875 375.363281 C 357.246094 377.933594 350.414063 378.222656 343.789063 378.582031 C 262.097656 383.515625 180.410156 388.445313 98.71875 393.382813 C 90.519531 393.824219 81.710938 394.222656 74.269531 390.15625 C 68.960938 387.304688 65.269531 382.394531 61.699219 377.695313 C 45.46875 356.605469 29.199219 335.542969 12.980469 314.453125 C 6.21875 305.523438 0.289063 295.132813 0.25 283.613281 C 0.21875 204.613281 0.257813 125.625 0.230469 46.625 C 0.0585938 40.074219 0.875 33.175781 4.597656 27.59375 C 8.730469 21.234375 16.371094 18.152344 23.699219 17.625 C 96.589844 12.222656 169.488281 6.882813 242.378906 1.503906 Z M 41.589844 38.222656 C 38.847656 38.523438 35.488281 39.085938 34.109375 41.792969 C 33.347656 43.574219 34.71875 45.304688 36.039063 46.363281 C 46.078125 54.34375 56.148438 62.304688 66.191406 70.304688 C 69.621094 72.992188 73.269531 75.574219 77.488281 76.84375 C 82.410156 78.355469 87.621094 78.152344 92.699219 77.964844 C 169.007813 73.292969 245.339844 68.792969 321.660156 64.175781 C 322.199219 64.003906 323.289063 63.683594 323.828125 63.515625 C 323.46875 61.855469 322.679688 60.253906 321.230469 59.285156 C 308.269531 49.855469 295.210938 40.542969 282.289063 31.054688 C 274.1875 24.855469 263.808594 22.074219 253.679688 22.765625 C 182.980469 27.882813 112.289063 33.0625 41.589844 38.222656 Z M 329.746094 90.714844 C 250.429688 95.335938 171.109375 99.984375 91.796875 104.605469 C 88.121094 104.785156 84.039063 105.433594 81.429688 108.292969 C 78.648438 111.355469 78.308594 115.722656 78.238281 119.664063 C 78.230469 195.664063 78.238281 271.652344 78.238281 347.652344 C 78.21875 352.242188 79.109375 357.394531 82.878906 360.453125 C 87.320313 363.964844 93.347656 363.933594 98.738281 363.675781 C 178.019531 359.09375 257.308594 354.515625 336.589844 349.914063 C 340.558594 349.625 344.820313 348.585938 347.550781 345.472656 C 350.878906 341.714844 351.140625 336.394531 351.238281 331.613281 C 351.238281 255.933594 351.238281 180.242188 351.238281 104.5625 C 351.257813 99.605469 350.238281 93.515625 345.328125 91.085938 C 340.371094 89.042969 334.910156 90.8125 329.746094 90.714844 Z M 259.9375 135.304688 C 277.628906 134.175781 295.339844 133.3125 313.03125 132.132813 C 314.1875 137.035156 313.871094 143.992188 308.429688 146.152344 C 303.910156 147.355469 299.257813 147.996094 294.691406 148.984375 C 294.710938 204.984375 294.589844 260.984375 294.746094 316.972656 C 284.414063 322.652344 272.414063 327.335938 260.46875 324.804688 C 252.679688 323.023438 248.078125 315.902344 243.378906 310.09375 C 218.359375 270.933594 193.410156 231.722656 168.46875 192.515625 C 168.539063 230.503906 168.449219 268.484375 168.507813 306.464844 C 176.4375 308.132813 184.328125 310.035156 192.246094 311.753906 C 191.828125 319.605469 184.328125 324.902344 176.949219 325.285156 C 157.988281 326.332031 139.03125 327.535156 120.070313 328.535156 C 119.027344 324.175781 120.496094 318.695313 124.789063 316.664063 C 129.621094 315.105469 134.570313 313.945313 139.4375 312.492188 C 139.410156 262.324219 139.4375 212.144531 139.429688 161.964844 C 132.980469 161.464844 126.519531 161.042969 120.089844 160.382813 C 118.746094 152.773438 123.621094 144.0625 131.6875 143.09375 C 151.050781 141.535156 170.46875 140.523438 189.839844 139.015625 C 215.878906 178.742188 241.828125 218.515625 267.878906 258.222656 C 267.828125 223.082031 267.878906 187.953125 267.859375 152.8125 C 261.199219 152.042969 254.53125 151.34375 247.878906 150.492188 C 246.371094 143.003906 252.507813 135.785156 259.9375 135.304688 Z M 259.9375 135.304688 "/>
</g>
</svg>
