<svg width="1148" height="762" viewBox="0 0 1148 762" fill="none" xmlns="http://www.w3.org/2000/svg">
<g clip-path="url(#clip0_89_121)">
<path d="M898.112 43.63C1014.33 87.436 1148.43 162.532 1147.54 248.356C1145.75 334.18 1009.86 429.838 907.946 490.63C806.924 551.422 740.768 577.348 667.46 620.26C594.152 663.172 513.692 723.07 384.062 748.996C254.432 774.922 76.5261 766.876 20.2041 681.946C-35.2239 597.016 30.9321 436.096 118.544 336.862C206.156 238.522 315.224 202.762 396.578 152.698C477.932 102.634 532.466 39.16 608.456 13.234C684.446 -12.692 782.786 -0.175969 898.112 43.63Z" fill="#8A3FFC" fill-opacity="0.2"/>
</g>
<defs>
<clipPath id="clip0_89_121">
<rect width="1148" height="762" fill="white"/>
</clipPath>
</defs>
</svg>